<?xml version="1.0" encoding="UTF-8"?>
<!DOCTYPE svg PUBLIC "-//W3C//DTD SVG 1.1//EN"
        "http://www.w3.org/Graphics/SVG/1.1/DTD/svg11.dtd">
<svg
  xmlns="http://www.w3.org/2000/svg"
  xmlns:xlink="http://www.w3.org/1999/xlink"
  version="1.1"
  width="400pt"
  height="300pt"
  viewBox="0 0 400 300"
  >
  <rect
    x="0"
    y="0"
    width="400"
    height="300"
    stroke="none"
    fill="#FFFFFF"
    fill-opacity="1.000000"
    />
  <g
    transform="matrix(1 0 0 -1 0 300)"
    >
    <polyline
      stroke-width="2.000000e+00"
      stroke="#FF0000"
      stroke-opacity="1.000000"
      fill="none"
      points="56.00,265.00 59.08,255.88 62.17,246.96 65.26,238.23 68.35,229.67 71.45,221.30 74.54,213.10 77.63,205.10 80.72,197.28 83.80,189.64 
      86.89,182.20 89.98,174.93 93.07,167.84 96.17,160.94 99.26,154.23 102.35,147.70 105.44,141.35 108.52,135.18 111.61,129.20 114.70,123.40 
      117.79,117.80 120.89,112.37 123.98,107.12 127.07,102.07 130.16,97.18 133.24,92.50 136.33,87.99 139.42,83.67 142.51,79.52 145.61,75.56 
      148.70,71.79 151.79,68.21 154.88,64.81 157.96,61.59 161.05,58.55 164.14,55.70 167.23,53.03 170.33,50.55 173.42,48.24 176.51,46.13 
      179.60,44.20 182.68,42.45 185.77,40.88 188.86,39.50 191.95,38.31 195.05,37.29 198.14,36.48 201.23,35.83 204.32,35.36 207.40,35.08 
      210.49,35.00 213.58,35.08 216.67,35.36 219.77,35.83 222.86,36.48 225.95,37.29 229.04,38.31 232.12,39.50 235.21,40.88 238.30,42.45 
      241.39,44.20 244.49,46.13 247.58,48.24 250.67,50.55 253.76,53.03 256.84,55.70 259.93,58.55 263.02,61.59 266.11,64.81 269.21,68.21 
      272.30,71.79 275.39,75.56 278.48,79.52 281.56,83.67 284.65,87.99 287.74,92.50 290.83,97.18 293.93,102.07 297.02,107.12 300.11,112.37 
      303.20,117.80 306.28,123.40 309.37,129.20 312.46,135.18 315.55,141.35 318.65,147.70 321.74,154.23 324.83,160.94 327.92,167.84 331.00,174.93 
      334.09,182.20 337.18,189.64 340.27,197.28 343.37,205.10 346.46,213.10 349.55,221.30 352.64,229.67 355.72,238.23 358.81,246.96 361.90,255.88 
      364.99,265.00 "/>
    <polyline
      stroke-width="5.000000e-01"
      stroke="#000000"
      stroke-opacity="1.000000"
      fill="none"
      points="56.00,35.00 365.00,35.00"
      />
    <polyline
      stroke-width="5.000000e-01"
      stroke="#000000"
      stroke-opacity="1.000000"
      fill="none"
      points="56.00,35.00 56.00,40.25"
      />
    <polyline
      stroke-width="5.000000e-01"
      stroke="#000000"
      stroke-opacity="1.000000"
      fill="none"
      points="71.45,35.00 71.45,37.62"
      />
    <polyline
      stroke-width="5.000000e-01"
      stroke="#000000"
      stroke-opacity="1.000000"
      fill="none"
      points="86.89,35.00 86.89,37.62"
      />
    <polyline
      stroke-width="5.000000e-01"
      stroke="#000000"
      stroke-opacity="1.000000"
      fill="none"
      points="102.35,35.00 102.35,37.62"
      />
    <polyline
      stroke-width="5.000000e-01"
      stroke="#000000"
      stroke-opacity="1.000000"
      fill="none"
      points="117.79,35.00 117.79,37.62"
      />
    <polyline
      stroke-width="5.000000e-01"
      stroke="#000000"
      stroke-opacity="1.000000"
      fill="none"
      points="133.24,35.00 133.24,40.25"
      />
    <polyline
      stroke-width="5.000000e-01"
      stroke="#000000"
      stroke-opacity="1.000000"
      fill="none"
      points="148.70,35.00 148.70,37.62"
      />
    <polyline
      stroke-width="5.000000e-01"
      stroke="#000000"
      stroke-opacity="1.000000"
      fill="none"
      points="164.14,35.00 164.14,37.62"
      />
    <polyline
      stroke-width="5.000000e-01"
      stroke="#000000"
      stroke-opacity="1.000000"
      fill="none"
      points="179.60,35.00 179.60,37.62"
      />
    <polyline
      stroke-width="5.000000e-01"
      stroke="#000000"
      stroke-opacity="1.000000"
      fill="none"
      points="195.05,35.00 195.05,37.62"
      />
    <polyline
      stroke-width="5.000000e-01"
      stroke="#000000"
      stroke-opacity="1.000000"
      fill="none"
      points="210.49,35.00 210.49,40.25"
      />
    <polyline
      stroke-width="5.000000e-01"
      stroke="#000000"
      stroke-opacity="1.000000"
      fill="none"
      points="225.95,35.00 225.95,37.62"
      />
    <polyline
      stroke-width="5.000000e-01"
      stroke="#000000"
      stroke-opacity="1.000000"
      fill="none"
      points="241.39,35.00 241.39,37.62"
      />
    <polyline
      stroke-width="5.000000e-01"
      stroke="#000000"
      stroke-opacity="1.000000"
      fill="none"
      points="256.84,35.00 256.84,37.62"
      />
    <polyline
      stroke-width="5.000000e-01"
      stroke="#000000"
      stroke-opacity="1.000000"
      fill="none"
      points="272.30,35.00 272.30,37.62"
      />
    <polyline
      stroke-width="5.000000e-01"
      stroke="#000000"
      stroke-opacity="1.000000"
      fill="none"
      points="287.74,35.00 287.74,40.25"
      />
    <polyline
      stroke-width="5.000000e-01"
      stroke="#000000"
      stroke-opacity="1.000000"
      fill="none"
      points="303.20,35.00 303.20,37.62"
      />
    <polyline
      stroke-width="5.000000e-01"
      stroke="#000000"
      stroke-opacity="1.000000"
      fill="none"
      points="318.65,35.00 318.65,37.62"
      />
    <polyline
      stroke-width="5.000000e-01"
      stroke="#000000"
      stroke-opacity="1.000000"
      fill="none"
      points="334.09,35.00 334.09,37.62"
      />
    <polyline
      stroke-width="5.000000e-01"
      stroke="#000000"
      stroke-opacity="1.000000"
      fill="none"
      points="349.55,35.00 349.55,37.62"
      />
    <polyline
      stroke-width="5.000000e-01"
      stroke="#000000"
      stroke-opacity="1.000000"
      fill="none"
      points="364.99,35.00 364.99,40.25"
      />
    <polyline
      stroke-width="5.000000e-01"
      stroke="#000000"
      stroke-opacity="1.000000"
      fill="none"
      points="365.00,35.00 365.00,265.00"
      />
    <polyline
      stroke-width="5.000000e-01"
      stroke="#000000"
      stroke-opacity="1.000000"
      fill="none"
      points="359.75,35.00 365.00,35.00"
      />
    <polyline
      stroke-width="5.000000e-01"
      stroke="#000000"
      stroke-opacity="1.000000"
      fill="none"
      points="362.38,46.50 365.00,46.50"
      />
    <polyline
      stroke-width="5.000000e-01"
      stroke="#000000"
      stroke-opacity="1.000000"
      fill="none"
      points="362.38,58.00 365.00,58.00"
      />
    <polyline
      stroke-width="5.000000e-01"
      stroke="#000000"
      stroke-opacity="1.000000"
      fill="none"
      points="362.38,69.50 365.00,69.50"
      />
    <polyline
      stroke-width="5.000000e-01"
      stroke="#000000"
      stroke-opacity="1.000000"
      fill="none"
      points="362.38,81.00 365.00,81.00"
      />
    <polyline
      stroke-width="5.000000e-01"
      stroke="#000000"
      stroke-opacity="1.000000"
      fill="none"
      points="359.75,92.50 365.00,92.50"
      />
    <polyline
      stroke-width="5.000000e-01"
      stroke="#000000"
      stroke-opacity="1.000000"
      fill="none"
      points="362.38,103.99 365.00,103.99"
      />
    <polyline
      stroke-width="5.000000e-01"
      stroke="#000000"
      stroke-opacity="1.000000"
      fill="none"
      points="362.38,115.49 365.00,115.49"
      />
    <polyline
      stroke-width="5.000000e-01"
      stroke="#000000"
      stroke-opacity="1.000000"
      fill="none"
      points="362.38,126.99 365.00,126.99"
      />
    <polyline
      stroke-width="5.000000e-01"
      stroke="#000000"
      stroke-opacity="1.000000"
      fill="none"
      points="362.38,138.49 365.00,138.49"
      />
    <polyline
      stroke-width="5.000000e-01"
      stroke="#000000"
      stroke-opacity="1.000000"
      fill="none"
      points="359.75,149.99 365.00,149.99"
      />
    <polyline
      stroke-width="5.000000e-01"
      stroke="#000000"
      stroke-opacity="1.000000"
      fill="none"
      points="362.38,161.49 365.00,161.49"
      />
    <polyline
      stroke-width="5.000000e-01"
      stroke="#000000"
      stroke-opacity="1.000000"
      fill="none"
      points="362.38,172.99 365.00,172.99"
      />
    <polyline
      stroke-width="5.000000e-01"
      stroke="#000000"
      stroke-opacity="1.000000"
      fill="none"
      points="362.38,184.49 365.00,184.49"
      />
    <polyline
      stroke-width="5.000000e-01"
      stroke="#000000"
      stroke-opacity="1.000000"
      fill="none"
      points="362.38,195.99 365.00,195.99"
      />
    <polyline
      stroke-width="5.000000e-01"
      stroke="#000000"
      stroke-opacity="1.000000"
      fill="none"
      points="359.75,207.49 365.00,207.49"
      />
    <polyline
      stroke-width="5.000000e-01"
      stroke="#000000"
      stroke-opacity="1.000000"
      fill="none"
      points="362.38,218.99 365.00,218.99"
      />
    <polyline
      stroke-width="5.000000e-01"
      stroke="#000000"
      stroke-opacity="1.000000"
      fill="none"
      points="362.38,230.49 365.00,230.49"
      />
    <polyline
      stroke-width="5.000000e-01"
      stroke="#000000"
      stroke-opacity="1.000000"
      fill="none"
      points="362.38,242.00 365.00,242.00"
      />
    <polyline
      stroke-width="5.000000e-01"
      stroke="#000000"
      stroke-opacity="1.000000"
      fill="none"
      points="362.38,253.50 365.00,253.50"
      />
    <polyline
      stroke-width="5.000000e-01"
      stroke="#000000"
      stroke-opacity="1.000000"
      fill="none"
      points="359.75,265.00 365.00,265.00"
      />
    <polyline
      stroke-width="5.000000e-01"
      stroke="#000000"
      stroke-opacity="1.000000"
      fill="none"
      points="365.00,265.00 56.00,265.00"
      />
    <polyline
      stroke-width="5.000000e-01"
      stroke="#000000"
      stroke-opacity="1.000000"
      fill="none"
      points="364.99,259.75 364.99,265.00"
      />
    <polyline
      stroke-width="5.000000e-01"
      stroke="#000000"
      stroke-opacity="1.000000"
      fill="none"
      points="349.55,262.37 349.55,265.00"
      />
    <polyline
      stroke-width="5.000000e-01"
      stroke="#000000"
      stroke-opacity="1.000000"
      fill="none"
      points="334.09,262.37 334.09,265.00"
      />
    <polyline
      stroke-width="5.000000e-01"
      stroke="#000000"
      stroke-opacity="1.000000"
      fill="none"
      points="318.65,262.37 318.65,265.00"
      />
    <polyline
      stroke-width="5.000000e-01"
      stroke="#000000"
      stroke-opacity="1.000000"
      fill="none"
      points="303.20,262.37 303.20,265.00"
      />
    <polyline
      stroke-width="5.000000e-01"
      stroke="#000000"
      stroke-opacity="1.000000"
      fill="none"
      points="287.74,259.75 287.74,265.00"
      />
    <polyline
      stroke-width="5.000000e-01"
      stroke="#000000"
      stroke-opacity="1.000000"
      fill="none"
      points="272.30,262.37 272.30,265.00"
      />
    <polyline
      stroke-width="5.000000e-01"
      stroke="#000000"
      stroke-opacity="1.000000"
      fill="none"
      points="256.84,262.37 256.84,265.00"
      />
    <polyline
      stroke-width="5.000000e-01"
      stroke="#000000"
      stroke-opacity="1.000000"
      fill="none"
      points="241.39,262.37 241.39,265.00"
      />
    <polyline
      stroke-width="5.000000e-01"
      stroke="#000000"
      stroke-opacity="1.000000"
      fill="none"
      points="225.95,262.37 225.95,265.00"
      />
    <polyline
      stroke-width="5.000000e-01"
      stroke="#000000"
      stroke-opacity="1.000000"
      fill="none"
      points="210.49,259.75 210.49,265.00"
      />
    <polyline
      stroke-width="5.000000e-01"
      stroke="#000000"
      stroke-opacity="1.000000"
      fill="none"
      points="195.05,262.37 195.05,265.00"
      />
    <polyline
      stroke-width="5.000000e-01"
      stroke="#000000"
      stroke-opacity="1.000000"
      fill="none"
      points="179.60,262.37 179.60,265.00"
      />
    <polyline
      stroke-width="5.000000e-01"
      stroke="#000000"
      stroke-opacity="1.000000"
      fill="none"
      points="164.14,262.37 164.14,265.00"
      />
    <polyline
      stroke-width="5.000000e-01"
      stroke="#000000"
      stroke-opacity="1.000000"
      fill="none"
      points="148.70,262.37 148.70,265.00"
      />
    <polyline
      stroke-width="5.000000e-01"
      stroke="#000000"
      stroke-opacity="1.000000"
      fill="none"
      points="133.24,259.75 133.24,265.00"
      />
    <polyline
      stroke-width="5.000000e-01"
      stroke="#000000"
      stroke-opacity="1.000000"
      fill="none"
      points="117.79,262.37 117.79,265.00"
      />
    <polyline
      stroke-width="5.000000e-01"
      stroke="#000000"
      stroke-opacity="1.000000"
      fill="none"
      points="102.35,262.37 102.35,265.00"
      />
    <polyline
      stroke-width="5.000000e-01"
      stroke="#000000"
      stroke-opacity="1.000000"
      fill="none"
      points="86.89,262.37 86.89,265.00"
      />
    <polyline
      stroke-width="5.000000e-01"
      stroke="#000000"
      stroke-opacity="1.000000"
      fill="none"
      points="71.45,262.37 71.45,265.00"
      />
    <polyline
      stroke-width="5.000000e-01"
      stroke="#000000"
      stroke-opacity="1.000000"
      fill="none"
      points="56.00,259.75 56.00,265.00"
      />
    <polyline
      stroke-width="5.000000e-01"
      stroke="#000000"
      stroke-opacity="1.000000"
      fill="none"
      points="56.00,265.00 56.00,35.00"
      />
    <polyline
      stroke-width="5.000000e-01"
      stroke="#000000"
      stroke-opacity="1.000000"
      fill="none"
      points="56.00,265.00 61.24,265.00"
      />
    <polyline
      stroke-width="5.000000e-01"
      stroke="#000000"
      stroke-opacity="1.000000"
      fill="none"
      points="56.00,253.50 58.62,253.50"
      />
    <polyline
      stroke-width="5.000000e-01"
      stroke="#000000"
      stroke-opacity="1.000000"
      fill="none"
      points="56.00,242.00 58.62,242.00"
      />
    <polyline
      stroke-width="5.000000e-01"
      stroke="#000000"
      stroke-opacity="1.000000"
      fill="none"
      points="56.00,230.49 58.62,230.49"
      />
    <polyline
      stroke-width="5.000000e-01"
      stroke="#000000"
      stroke-opacity="1.000000"
      fill="none"
      points="56.00,218.99 58.62,218.99"
      />
    <polyline
      stroke-width="5.000000e-01"
      stroke="#000000"
      stroke-opacity="1.000000"
      fill="none"
      points="56.00,207.49 61.24,207.49"
      />
    <polyline
      stroke-width="5.000000e-01"
      stroke="#000000"
      stroke-opacity="1.000000"
      fill="none"
      points="56.00,195.99 58.62,195.99"
      />
    <polyline
      stroke-width="5.000000e-01"
      stroke="#000000"
      stroke-opacity="1.000000"
      fill="none"
      points="56.00,184.49 58.62,184.49"
      />
    <polyline
      stroke-width="5.000000e-01"
      stroke="#000000"
      stroke-opacity="1.000000"
      fill="none"
      points="56.00,172.99 58.62,172.99"
      />
    <polyline
      stroke-width="5.000000e-01"
      stroke="#000000"
      stroke-opacity="1.000000"
      fill="none"
      points="56.00,161.49 58.62,161.49"
      />
    <polyline
      stroke-width="5.000000e-01"
      stroke="#000000"
      stroke-opacity="1.000000"
      fill="none"
      points="56.00,149.99 61.24,149.99"
      />
    <polyline
      stroke-width="5.000000e-01"
      stroke="#000000"
      stroke-opacity="1.000000"
      fill="none"
      points="56.00,138.49 58.62,138.49"
      />
    <polyline
      stroke-width="5.000000e-01"
      stroke="#000000"
      stroke-opacity="1.000000"
      fill="none"
      points="56.00,126.99 58.62,126.99"
      />
    <polyline
      stroke-width="5.000000e-01"
      stroke="#000000"
      stroke-opacity="1.000000"
      fill="none"
      points="56.00,115.49 58.62,115.49"
      />
    <polyline
      stroke-width="5.000000e-01"
      stroke="#000000"
      stroke-opacity="1.000000"
      fill="none"
      points="56.00,103.99 58.62,103.99"
      />
    <polyline
      stroke-width="5.000000e-01"
      stroke="#000000"
      stroke-opacity="1.000000"
      fill="none"
      points="56.00,92.50 61.24,92.50"
      />
    <polyline
      stroke-width="5.000000e-01"
      stroke="#000000"
      stroke-opacity="1.000000"
      fill="none"
      points="56.00,81.00 58.62,81.00"
      />
    <polyline
      stroke-width="5.000000e-01"
      stroke="#000000"
      stroke-opacity="1.000000"
      fill="none"
      points="56.00,69.50 58.62,69.50"
      />
    <polyline
      stroke-width="5.000000e-01"
      stroke="#000000"
      stroke-opacity="1.000000"
      fill="none"
      points="56.00,58.00 58.62,58.00"
      />
    <polyline
      stroke-width="5.000000e-01"
      stroke="#000000"
      stroke-opacity="1.000000"
      fill="none"
      points="56.00,46.50 58.62,46.50"
      />
    <polyline
      stroke-width="5.000000e-01"
      stroke="#000000"
      stroke-opacity="1.000000"
      fill="none"
      points="56.00,35.00 61.24,35.00"
      />
    <clipPath
      id="text-clipping0"
      >
      <polygon
        points="0.000000,0.000000 0.000000,299.996948 400.000000,299.996948 400.000000,0.000000"
        />
    </clipPath>
    <g
      clip-path="url(#text-clipping0)"
      >
      <text
        dominant-baseline="no-change"
        fill="#000000"
        fill-opacity="1.000000"
        xml:space="preserve"
        font-size="9"
        transform="matrix(1.000000 0.000000 0.000000 -1.000000 56.007569 24.500259)"
        text-anchor="middle"
        x="0.000000"
        y="3.806436"
><tspan font-family="sans-serif" font-style="normal" font-weight="normal">&#x2d;&#x32;</tspan></text>
    </g>
    <g
      clip-path="url(#text-clipping0)"
      >
      <text
        dominant-baseline="no-change"
        fill="#000000"
        fill-opacity="1.000000"
        xml:space="preserve"
        font-size="9"
        transform="matrix(1.000000 0.000000 0.000000 -1.000000 133.256020 24.500259)"
        text-anchor="middle"
        x="0.000000"
        y="3.806436"
><tspan font-family="sans-serif" font-style="normal" font-weight="normal">&#x2d;&#x31;</tspan></text>
    </g>
    <g
      clip-path="url(#text-clipping0)"
      >
      <text
        dominant-baseline="no-change"
        fill="#000000"
        fill-opacity="1.000000"
        xml:space="preserve"
        font-size="9"
        transform="matrix(1.000000 0.000000 0.000000 -1.000000 210.504471 24.500259)"
        text-anchor="middle"
        x="0.000000"
        y="3.806436"
><tspan font-family="sans-serif" font-style="normal" font-weight="normal">&#x30;</tspan></text>
    </g>
    <g
      clip-path="url(#text-clipping0)"
      >
      <text
        dominant-baseline="no-change"
        fill="#000000"
        fill-opacity="1.000000"
        xml:space="preserve"
        font-size="9"
        transform="matrix(1.000000 0.000000 0.000000 -1.000000 287.752922 24.500259)"
        text-anchor="middle"
        x="0.000000"
        y="3.806436"
><tspan font-family="sans-serif" font-style="normal" font-weight="normal">&#x31;</tspan></text>
    </g>
    <g
      clip-path="url(#text-clipping0)"
      >
      <text
        dominant-baseline="no-change"
        fill="#000000"
        fill-opacity="1.000000"
        xml:space="preserve"
        font-size="9"
        transform="matrix(1.000000 0.000000 0.000000 -1.000000 365.001373 24.500259)"
        text-anchor="middle"
        x="0.000000"
        y="3.806436"
><tspan font-family="sans-serif" font-style="normal" font-weight="normal">&#x32;</tspan></text>
    </g>
    <g
      clip-path="url(#text-clipping0)"
      >
      <text
        dominant-baseline="no-change"
        fill="#000000"
        fill-opacity="1.000000"
        xml:space="preserve"
        font-size="9"
        transform="matrix(1.000000 0.000000 0.000000 -1.000000 52.504044 34.998627)"
        text-anchor="end"
        x="0.000000"
        y="3.806436"
><tspan font-family="sans-serif" font-style="normal" font-weight="normal">&#x2d;&#x31;</tspan></text>
    </g>
    <g
      clip-path="url(#text-clipping0)"
      >
      <text
        dominant-baseline="no-change"
        fill="#000000"
        fill-opacity="1.000000"
        xml:space="preserve"
        font-size="9"
        transform="matrix(1.000000 0.000000 0.000000 -1.000000 52.504044 92.495499)"
        text-anchor="end"
        x="0.000000"
        y="3.806436"
><tspan font-family="sans-serif" font-style="normal" font-weight="normal">&#x30;</tspan></text>
    </g>
    <g
      clip-path="url(#text-clipping0)"
      >
      <text
        dominant-baseline="no-change"
        fill="#000000"
        fill-opacity="1.000000"
        xml:space="preserve"
        font-size="9"
        transform="matrix(1.000000 0.000000 0.000000 -1.000000 52.504044 150.004578)"
        text-anchor="end"
        x="0.000000"
        y="3.806436"
><tspan font-family="sans-serif" font-style="normal" font-weight="normal">&#x31;</tspan></text>
    </g>
    <g
      clip-path="url(#text-clipping0)"
      >
      <text
        dominant-baseline="no-change"
        fill="#000000"
        fill-opacity="1.000000"
        xml:space="preserve"
        font-size="9"
        transform="matrix(1.000000 0.000000 0.000000 -1.000000 52.504044 207.501450)"
        text-anchor="end"
        x="0.000000"
        y="3.806436"
><tspan font-family="sans-serif" font-style="normal" font-weight="normal">&#x32;</tspan></text>
    </g>
    <g
      clip-path="url(#text-clipping0)"
      >
      <text
        dominant-baseline="no-change"
        fill="#000000"
        fill-opacity="1.000000"
        xml:space="preserve"
        font-size="9"
        transform="matrix(1.000000 0.000000 0.000000 -1.000000 52.504044 264.998321)"
        text-anchor="end"
        x="0.000000"
        y="3.806436"
><tspan font-family="sans-serif" font-style="normal" font-weight="normal">&#x33;</tspan></text>
    </g>
    <g
      clip-path="url(#text-clipping0)"
      >
      <text
        dominant-baseline="no-change"
        fill="#000000"
        fill-opacity="1.000000"
        xml:space="preserve"
        font-size="9"
        transform="matrix(1.000000 0.000000 0.000000 -1.000000 210.504471 279.000214)"
        text-anchor="middle"
        x="0.000000"
        y="3.806436"
><tspan font-family="sans-serif" font-style="normal" font-weight="normal">&#x50;&#x6c;&#x6f;&#x74;</tspan></text>
    </g>
    <g
      clip-path="url(#text-clipping0)"
      >
      <text
        dominant-baseline="no-change"
        fill="#000000"
        fill-opacity="1.000000"
        xml:space="preserve"
        font-size="9"
        transform="matrix(1.000000 0.000000 0.000000 -1.000000 210.504471 12.598041)"
        text-anchor="middle"
        x="0.000000"
        y="3.806436"
><tspan font-family="sans-serif" font-style="normal" font-weight="normal"><tspan font-family="serif" font-style="italic" font-weight="normal">&#x78;<tspan font-family="sans-serif" font-style="normal" font-weight="normal"></tspan></tspan></tspan></text>
    </g>
    <g
      clip-path="url(#text-clipping0)"
      >
      <text
        dominant-baseline="no-change"
        fill="#000000"
        fill-opacity="1.000000"
        xml:space="preserve"
        font-size="9"
        transform="matrix(0.000000 1.000000 1.000000 -0.000000 20.996735 150.004578)"
        text-anchor="middle"
        x="0.000000"
        y="3.806436"
><tspan font-family="sans-serif" font-style="normal" font-weight="normal"><tspan font-family="serif" font-style="italic" font-weight="normal">&#x79;<tspan font-family="sans-serif" font-style="normal" font-weight="normal"></tspan></tspan></tspan></text>
    </g>
  </g>
</svg>
