<?xml version="1.0" encoding="UTF-8"?>
<!DOCTYPE svg PUBLIC "-//W3C//DTD SVG 1.1//EN"
        "http://www.w3.org/Graphics/SVG/1.1/DTD/svg11.dtd">
<svg
  xmlns="http://www.w3.org/2000/svg"
  xmlns:xlink="http://www.w3.org/1999/xlink"
  version="1.1"
  width="320pt"
  height="240pt"
  viewBox="0 0 320 240"
  >
  <rect
    x="0"
    y="0"
    width="320"
    height="240"
    stroke="none"
    fill="#FFFFFF"
    fill-opacity="0.000000"
    />
  <g
    transform="matrix(1 0 0 -1 0 240)"
    >
    <polyline
      stroke-width="2.000000e+00"
      stroke="#00FFFF"
      stroke-opacity="1.000000"
      fill="none"
      points="44.80,28.32 44.94,28.32"
      />
    <polyline
      stroke-width="2.000000e+00"
      stroke="#00FFFF"
      stroke-opacity="1.000000"
      fill="none"
      points="44.80,33.99 47.59,33.99"
      />
    <polyline
      stroke-width="2.000000e+00"
      stroke="#00FFFF"
      stroke-opacity="1.000000"
      fill="none"
      points="44.80,39.65 50.27,39.65"
      />
    <polyline
      stroke-width="2.000000e+00"
      stroke="#00FFFF"
      stroke-opacity="1.000000"
      fill="none"
      points="44.80,45.31 53.14,45.31"
      />
    <polyline
      stroke-width="2.000000e+00"
      stroke="#00FFFF"
      stroke-opacity="1.000000"
      fill="none"
      points="44.80,50.98 56.12,50.98"
      />
    <polyline
      stroke-width="2.000000e+00"
      stroke="#00FFFF"
      stroke-opacity="1.000000"
      fill="none"
      points="44.80,56.64 59.26,56.64"
      />
    <polyline
      stroke-width="2.000000e+00"
      stroke="#00FFFF"
      stroke-opacity="1.000000"
      fill="none"
      points="44.80,62.31 62.66,62.31"
      />
    <polyline
      stroke-width="2.000000e+00"
      stroke="#00FFFF"
      stroke-opacity="1.000000"
      fill="none"
      points="44.80,67.97 66.23,67.97"
      />
    <polyline
      stroke-width="2.000000e+00"
      stroke="#00FFFF"
      stroke-opacity="1.000000"
      fill="none"
      points="44.80,73.64 70.06,73.64"
      />
    <polyline
      stroke-width="2.000000e+00"
      stroke="#00FFFF"
      stroke-opacity="1.000000"
      fill="none"
      points="44.80,79.30 74.22,79.30"
      />
    <polyline
      stroke-width="2.000000e+00"
      stroke="#00FFFF"
      stroke-opacity="1.000000"
      fill="none"
      points="44.80,84.96 78.84,84.96"
      />
    <polyline
      stroke-width="2.000000e+00"
      stroke="#00FFFF"
      stroke-opacity="1.000000"
      fill="none"
      points="44.80,90.63 83.95,90.63"
      />
    <polyline
      stroke-width="2.000000e+00"
      stroke="#00FFFF"
      stroke-opacity="1.000000"
      fill="none"
      points="44.80,96.29 89.77,96.29"
      />
    <polyline
      stroke-width="2.000000e+00"
      stroke="#00FFFF"
      stroke-opacity="1.000000"
      fill="none"
      points="44.80,101.96 96.67,101.96"
      />
    <polyline
      stroke-width="2.000000e+00"
      stroke="#00FFFF"
      stroke-opacity="1.000000"
      fill="none"
      points="44.80,107.62 105.12,107.62"
      />
    <polyline
      stroke-width="2.000000e+00"
      stroke="#00FFFF"
      stroke-opacity="1.000000"
      fill="none"
      points="44.80,113.28 116.87,113.28"
      />
    <polyline
      stroke-width="2.000000e+00"
      stroke="#00FFFF"
      stroke-opacity="1.000000"
      fill="none"
      points="44.80,118.95 140.81,118.95"
      />
    <polyline
      stroke-width="2.000000e+00"
      stroke="#00FFFF"
      stroke-opacity="1.000000"
      fill="none"
      points="44.80,124.61 120.50,124.61"
      />
    <polyline
      stroke-width="2.000000e+00"
      stroke="#00FFFF"
      stroke-opacity="1.000000"
      fill="none"
      points="213.89,124.61 216.30,124.61"
      />
    <polyline
      stroke-width="2.000000e+00"
      stroke="#00FFFF"
      stroke-opacity="1.000000"
      fill="none"
      points="44.80,130.28 96.88,130.28"
      />
    <polyline
      stroke-width="2.000000e+00"
      stroke="#00FFFF"
      stroke-opacity="1.000000"
      fill="none"
      points="227.92,130.28 239.92,130.28"
      />
    <polyline
      stroke-width="2.000000e+00"
      stroke="#00FFFF"
      stroke-opacity="1.000000"
      fill="none"
      points="44.80,135.94 79.27,135.94"
      />
    <polyline
      stroke-width="2.000000e+00"
      stroke="#00FFFF"
      stroke-opacity="1.000000"
      fill="none"
      points="237.28,135.94 257.53,135.94"
      />
    <polyline
      stroke-width="2.000000e+00"
      stroke="#00FFFF"
      stroke-opacity="1.000000"
      fill="none"
      points="44.80,141.61 64.64,141.61"
      />
    <polyline
      stroke-width="2.000000e+00"
      stroke="#00FFFF"
      stroke-opacity="1.000000"
      fill="none"
      points="244.58,141.61 272.15,141.61"
      />
    <polyline
      stroke-width="2.000000e+00"
      stroke="#00FFFF"
      stroke-opacity="1.000000"
      fill="none"
      points="44.80,147.27 51.86,147.27"
      />
    <polyline
      stroke-width="2.000000e+00"
      stroke="#00FFFF"
      stroke-opacity="1.000000"
      fill="none"
      points="250.74,147.27 284.93,147.27"
      />
    <polyline
      stroke-width="2.000000e+00"
      stroke="#00FFFF"
      stroke-opacity="1.000000"
      fill="none"
      points="256.11,152.93 291.99,152.93"
      />
    <polyline
      stroke-width="2.000000e+00"
      stroke="#00FFFF"
      stroke-opacity="1.000000"
      fill="none"
      points="260.88,158.60 291.99,158.60"
      />
    <polyline
      stroke-width="2.000000e+00"
      stroke="#00FFFF"
      stroke-opacity="1.000000"
      fill="none"
      points="265.18,164.26 291.99,164.26"
      />
    <polyline
      stroke-width="2.000000e+00"
      stroke="#00FFFF"
      stroke-opacity="1.000000"
      fill="none"
      points="269.16,169.93 291.99,169.93"
      />
    <polyline
      stroke-width="2.000000e+00"
      stroke="#00FFFF"
      stroke-opacity="1.000000"
      fill="none"
      points="272.86,175.59 291.99,175.59"
      />
    <polyline
      stroke-width="2.000000e+00"
      stroke="#00FFFF"
      stroke-opacity="1.000000"
      fill="none"
      points="276.30,181.26 291.99,181.26"
      />
    <polyline
      stroke-width="2.000000e+00"
      stroke="#00FFFF"
      stroke-opacity="1.000000"
      fill="none"
      points="279.50,186.92 291.99,186.92"
      />
    <polyline
      stroke-width="2.000000e+00"
      stroke="#00FFFF"
      stroke-opacity="1.000000"
      fill="none"
      points="282.59,192.58 291.99,192.58"
      />
    <polyline
      stroke-width="2.000000e+00"
      stroke="#00FFFF"
      stroke-opacity="1.000000"
      fill="none"
      points="285.46,198.25 291.99,198.25"
      />
    <polyline
      stroke-width="2.000000e+00"
      stroke="#00FFFF"
      stroke-opacity="1.000000"
      fill="none"
      points="288.22,203.91 291.99,203.91"
      />
    <polyline
      stroke-width="2.000000e+00"
      stroke="#00FFFF"
      stroke-opacity="1.000000"
      fill="none"
      points="290.86,209.58 291.99,209.58"
      />
    <polyline
      stroke-width="2.000000e+00"
      stroke="#00FFFF"
      stroke-opacity="1.000000"
      fill="none"
      points="288.88,149.15 288.88,205.31"
      />
    <polyline
      stroke-width="2.000000e+00"
      stroke="#00FFFF"
      stroke-opacity="1.000000"
      fill="none"
      points="283.21,146.47 283.21,193.81"
      />
    <polyline
      stroke-width="2.000000e+00"
      stroke="#00FFFF"
      stroke-opacity="1.000000"
      fill="none"
      points="277.55,143.91 277.55,183.38"
      />
    <polyline
      stroke-width="2.000000e+00"
      stroke="#00FFFF"
      stroke-opacity="1.000000"
      fill="none"
      points="271.88,141.50 271.88,174.03"
      />
    <polyline
      stroke-width="2.000000e+00"
      stroke="#00FFFF"
      stroke-opacity="1.000000"
      fill="none"
      points="266.22,139.21 266.22,165.66"
      />
    <polyline
      stroke-width="2.000000e+00"
      stroke="#00FFFF"
      stroke-opacity="1.000000"
      fill="none"
      points="260.55,137.05 260.55,158.21"
      />
    <polyline
      stroke-width="2.000000e+00"
      stroke="#00FFFF"
      stroke-opacity="1.000000"
      fill="none"
      points="254.89,135.02 254.89,151.60"
      />
    <polyline
      stroke-width="2.000000e+00"
      stroke="#00FFFF"
      stroke-opacity="1.000000"
      fill="none"
      points="249.23,133.12 249.23,145.80"
      />
    <polyline
      stroke-width="2.000000e+00"
      stroke="#00FFFF"
      stroke-opacity="1.000000"
      fill="none"
      points="243.56,131.35 243.56,140.74"
      />
    <polyline
      stroke-width="2.000000e+00"
      stroke="#00FFFF"
      stroke-opacity="1.000000"
      fill="none"
      points="237.90,129.69 237.90,136.37"
      />
    <polyline
      stroke-width="2.000000e+00"
      stroke="#00FFFF"
      stroke-opacity="1.000000"
      fill="none"
      points="232.23,128.18 232.23,132.69"
      />
    <polyline
      stroke-width="2.000000e+00"
      stroke="#00FFFF"
      stroke-opacity="1.000000"
      fill="none"
      points="226.57,126.80 226.57,129.62"
      />
    <polyline
      stroke-width="2.000000e+00"
      stroke="#00FFFF"
      stroke-opacity="1.000000"
      fill="none"
      points="220.91,125.54 220.91,127.09"
      />
    <polyline
      stroke-width="2.000000e+00"
      stroke="#00FFFF"
      stroke-opacity="1.000000"
      fill="none"
      points="215.24,124.42 215.24,125.04"
      />
    <polyline
      stroke-width="2.000000e+00"
      stroke="#00FFFF"
      stroke-opacity="1.000000"
      fill="none"
      points="209.58,123.41 209.58,123.43"
      />
    <polyline
      stroke-width="2.000000e+00"
      stroke="#00FFFF"
      stroke-opacity="1.000000"
      fill="none"
      points="203.91,122.20 203.91,122.53"
      />
    <polyline
      stroke-width="2.000000e+00"
      stroke="#00FFFF"
      stroke-opacity="1.000000"
      fill="none"
      points="198.25,121.29 198.25,121.78"
      />
    <polyline
      stroke-width="2.000000e+00"
      stroke="#00FFFF"
      stroke-opacity="1.000000"
      fill="none"
      points="192.58,120.70 192.58,121.18"
      />
    <polyline
      stroke-width="2.000000e+00"
      stroke="#00FFFF"
      stroke-opacity="1.000000"
      fill="none"
      points="186.92,120.32 186.92,120.70"
      />
    <polyline
      stroke-width="2.000000e+00"
      stroke="#00FFFF"
      stroke-opacity="1.000000"
      fill="none"
      points="181.26,120.11 181.26,120.34"
      />
    <polyline
      stroke-width="2.000000e+00"
      stroke="#00FFFF"
      stroke-opacity="1.000000"
      fill="none"
      points="175.59,120.02 175.59,120.11"
      />
    <polyline
      stroke-width="2.000000e+00"
      stroke="#00FFFF"
      stroke-opacity="1.000000"
      fill="none"
      points="169.93,119.99 169.93,120.01"
      />
    <polyline
      stroke-width="2.000000e+00"
      stroke="#00FFFF"
      stroke-opacity="1.000000"
      fill="none"
      points="164.26,119.99 164.26,120.03"
      />
    <polyline
      stroke-width="2.000000e+00"
      stroke="#00FFFF"
      stroke-opacity="1.000000"
      fill="none"
      points="158.60,119.95 158.60,120.19"
      />
    <polyline
      stroke-width="2.000000e+00"
      stroke="#00FFFF"
      stroke-opacity="1.000000"
      fill="none"
      points="152.93,119.81 152.93,120.48"
      />
    <polyline
      stroke-width="2.000000e+00"
      stroke="#00FFFF"
      stroke-opacity="1.000000"
      fill="none"
      points="147.27,119.53 147.27,120.90"
      />
    <polyline
      stroke-width="2.000000e+00"
      stroke="#00FFFF"
      stroke-opacity="1.000000"
      fill="none"
      points="141.61,119.04 141.61,121.45"
      />
    <polyline
      stroke-width="2.000000e+00"
      stroke="#00FFFF"
      stroke-opacity="1.000000"
      fill="none"
      points="135.94,118.30 135.94,122.12"
      />
    <polyline
      stroke-width="2.000000e+00"
      stroke="#00FFFF"
      stroke-opacity="1.000000"
      fill="none"
      points="130.28,117.27 130.28,122.92"
      />
    <polyline
      stroke-width="2.000000e+00"
      stroke="#00FFFF"
      stroke-opacity="1.000000"
      fill="none"
      points="124.61,115.89 124.61,123.85"
      />
    <polyline
      stroke-width="2.000000e+00"
      stroke="#00FFFF"
      stroke-opacity="1.000000"
      fill="none"
      points="118.95,114.11 118.95,124.91"
      />
    <polyline
      stroke-width="2.000000e+00"
      stroke="#00FFFF"
      stroke-opacity="1.000000"
      fill="none"
      points="113.28,111.82 113.28,126.10"
      />
    <polyline
      stroke-width="2.000000e+00"
      stroke="#00FFFF"
      stroke-opacity="1.000000"
      fill="none"
      points="107.62,109.02 107.62,127.43"
      />
    <polyline
      stroke-width="2.000000e+00"
      stroke="#00FFFF"
      stroke-opacity="1.000000"
      fill="none"
      points="101.96,105.65 101.96,128.87"
      />
    <polyline
      stroke-width="2.000000e+00"
      stroke="#00FFFF"
      stroke-opacity="1.000000"
      fill="none"
      points="96.29,101.67 96.29,130.44"
      />
    <polyline
      stroke-width="2.000000e+00"
      stroke="#00FFFF"
      stroke-opacity="1.000000"
      fill="none"
      points="90.63,97.03 90.63,132.14"
      />
    <polyline
      stroke-width="2.000000e+00"
      stroke="#00FFFF"
      stroke-opacity="1.000000"
      fill="none"
      points="84.96,91.66 84.96,133.97"
      />
    <polyline
      stroke-width="2.000000e+00"
      stroke="#00FFFF"
      stroke-opacity="1.000000"
      fill="none"
      points="79.30,85.53 79.30,135.93"
      />
    <polyline
      stroke-width="2.000000e+00"
      stroke="#00FFFF"
      stroke-opacity="1.000000"
      fill="none"
      points="73.64,78.50 73.64,138.03"
      />
    <polyline
      stroke-width="2.000000e+00"
      stroke="#00FFFF"
      stroke-opacity="1.000000"
      fill="none"
      points="67.97,70.58 67.97,140.25"
      />
    <polyline
      stroke-width="2.000000e+00"
      stroke="#00FFFF"
      stroke-opacity="1.000000"
      fill="none"
      points="62.31,61.73 62.31,142.60"
      />
    <polyline
      stroke-width="2.000000e+00"
      stroke="#00FFFF"
      stroke-opacity="1.000000"
      fill="none"
      points="56.64,51.91 56.64,145.07"
      />
    <polyline
      stroke-width="2.000000e+00"
      stroke="#00FFFF"
      stroke-opacity="1.000000"
      fill="none"
      points="50.98,41.06 50.98,147.68"
      />
    <polyline
      stroke-width="2.000000e+00"
      stroke="#00FFFF"
      stroke-opacity="1.000000"
      fill="none"
      points="45.31,29.11 45.31,150.40"
      />
    <polyline
      stroke-width="3.000000e+00"
      stroke="#000000"
      stroke-opacity="1.000000"
      fill="none"
      points="44.80,150.66 49.74,148.26 54.68,145.95 59.63,143.74 64.57,141.64 69.51,139.62 74.46,137.71 79.41,135.89 84.35,134.17 89.29,132.55 
      94.23,131.04 99.18,129.61 104.12,128.29 109.07,127.06 114.01,125.93 118.96,124.91 123.90,123.97 128.84,123.14 133.78,122.40 138.73,121.76 
      143.68,121.22 148.62,120.78 153.56,120.43 158.51,120.19 163.45,120.04 168.39,119.99 173.34,120.04 178.29,120.19 183.23,120.43 188.17,120.78 
      193.11,121.22 198.06,121.76 203.00,122.40 207.95,123.14 212.89,123.97 217.84,124.91 222.78,125.93 227.72,127.06 232.66,128.29 237.61,129.61 
      242.56,131.04 247.50,132.55 252.44,134.17 257.39,135.89 262.33,137.71 267.27,139.62 272.22,141.64 277.17,143.74 282.11,145.95 287.05,148.26 
      291.99,150.66 "/>
    <polyline
      stroke-width="3.000000e+00"
      stroke="#000000"
      stroke-opacity="1.000000"
      fill="none"
      points="44.80,28.00 49.74,38.60 54.68,48.36 59.63,57.31 64.57,65.47 69.51,72.89 74.46,79.61 79.41,85.66 84.35,91.07 89.29,95.88 
      94.23,100.12 99.18,103.84 104.12,107.06 109.07,109.82 114.01,112.16 118.96,114.11 123.90,115.71 128.84,116.99 133.78,117.97 138.73,118.72 
      143.68,119.26 148.62,119.62 153.56,119.84 158.51,119.95 163.45,119.99 168.39,119.99 173.34,120.00 178.29,120.04 183.23,120.16 188.17,120.37 
      193.11,120.74 198.06,121.26 203.00,122.02 207.95,123.01 212.89,124.29 217.84,125.88 222.78,127.84 227.72,130.17 232.66,132.93 237.61,136.16 
      242.56,139.87 247.50,144.12 252.44,148.92 257.39,154.33 262.33,160.39 267.27,167.09 272.22,174.53 277.17,182.69 282.11,191.64 287.05,201.39 
      291.99,212.00 "/>
    <polyline
      stroke-width="3.000000e+00"
      stroke="#0000FF"
      stroke-opacity="1.000000"
      fill="none"
      points="44.80,28.00 292.00,28.00"
      />
    <polyline
      stroke-width="3.000000e+00"
      stroke="#0000FF"
      stroke-opacity="1.000000"
      fill="none"
      points="44.80,28.00 44.80,30.10"
      />
    <polyline
      stroke-width="3.000000e+00"
      stroke="#0000FF"
      stroke-opacity="1.000000"
      fill="none"
      points="65.39,28.00 65.39,30.10"
      />
    <polyline
      stroke-width="3.000000e+00"
      stroke="#0000FF"
      stroke-opacity="1.000000"
      fill="none"
      points="86.00,28.00 86.00,32.20"
      />
    <polyline
      stroke-width="3.000000e+00"
      stroke="#0000FF"
      stroke-opacity="1.000000"
      fill="none"
      points="106.60,28.00 106.60,30.10"
      />
    <polyline
      stroke-width="3.000000e+00"
      stroke="#0000FF"
      stroke-opacity="1.000000"
      fill="none"
      points="127.19,28.00 127.19,30.10"
      />
    <polyline
      stroke-width="3.000000e+00"
      stroke="#0000FF"
      stroke-opacity="1.000000"
      fill="none"
      points="147.80,28.00 147.80,30.10"
      />
    <polyline
      stroke-width="3.000000e+00"
      stroke="#0000FF"
      stroke-opacity="1.000000"
      fill="none"
      points="168.39,28.00 168.39,32.20"
      />
    <polyline
      stroke-width="3.000000e+00"
      stroke="#0000FF"
      stroke-opacity="1.000000"
      fill="none"
      points="189.00,28.00 189.00,30.10"
      />
    <polyline
      stroke-width="3.000000e+00"
      stroke="#0000FF"
      stroke-opacity="1.000000"
      fill="none"
      points="209.60,28.00 209.60,30.10"
      />
    <polyline
      stroke-width="3.000000e+00"
      stroke="#0000FF"
      stroke-opacity="1.000000"
      fill="none"
      points="230.19,28.00 230.19,30.10"
      />
    <polyline
      stroke-width="3.000000e+00"
      stroke="#0000FF"
      stroke-opacity="1.000000"
      fill="none"
      points="250.80,28.00 250.80,32.20"
      />
    <polyline
      stroke-width="3.000000e+00"
      stroke="#0000FF"
      stroke-opacity="1.000000"
      fill="none"
      points="271.40,28.00 271.40,30.10"
      />
    <polyline
      stroke-width="3.000000e+00"
      stroke="#0000FF"
      stroke-opacity="1.000000"
      fill="none"
      points="291.99,28.00 291.99,30.10"
      />
    <polyline
      stroke-width="3.000000e+00"
      stroke="#0000FF"
      stroke-opacity="1.000000"
      fill="none"
      points="292.00,28.00 292.00,212.00"
      />
    <polyline
      stroke-width="3.000000e+00"
      stroke="#0000FF"
      stroke-opacity="1.000000"
      fill="none"
      points="289.90,28.00 292.00,28.00"
      />
    <polyline
      stroke-width="3.000000e+00"
      stroke="#0000FF"
      stroke-opacity="1.000000"
      fill="none"
      points="289.90,34.82 292.00,34.82"
      />
    <polyline
      stroke-width="3.000000e+00"
      stroke="#0000FF"
      stroke-opacity="1.000000"
      fill="none"
      points="289.90,41.63 292.00,41.63"
      />
    <polyline
      stroke-width="3.000000e+00"
      stroke="#0000FF"
      stroke-opacity="1.000000"
      fill="none"
      points="289.90,48.44 292.00,48.44"
      />
    <polyline
      stroke-width="3.000000e+00"
      stroke="#0000FF"
      stroke-opacity="1.000000"
      fill="none"
      points="287.80,55.26 292.00,55.26"
      />
    <polyline
      stroke-width="3.000000e+00"
      stroke="#0000FF"
      stroke-opacity="1.000000"
      fill="none"
      points="289.90,62.07 292.00,62.07"
      />
    <polyline
      stroke-width="3.000000e+00"
      stroke="#0000FF"
      stroke-opacity="1.000000"
      fill="none"
      points="289.90,68.89 292.00,68.89"
      />
    <polyline
      stroke-width="3.000000e+00"
      stroke="#0000FF"
      stroke-opacity="1.000000"
      fill="none"
      points="289.90,75.71 292.00,75.71"
      />
    <polyline
      stroke-width="3.000000e+00"
      stroke="#0000FF"
      stroke-opacity="1.000000"
      fill="none"
      points="289.90,82.51 292.00,82.51"
      />
    <polyline
      stroke-width="3.000000e+00"
      stroke="#0000FF"
      stroke-opacity="1.000000"
      fill="none"
      points="287.80,89.33 292.00,89.33"
      />
    <polyline
      stroke-width="3.000000e+00"
      stroke="#0000FF"
      stroke-opacity="1.000000"
      fill="none"
      points="289.90,96.15 292.00,96.15"
      />
    <polyline
      stroke-width="3.000000e+00"
      stroke="#0000FF"
      stroke-opacity="1.000000"
      fill="none"
      points="289.90,102.96 292.00,102.96"
      />
    <polyline
      stroke-width="3.000000e+00"
      stroke="#0000FF"
      stroke-opacity="1.000000"
      fill="none"
      points="289.90,109.78 292.00,109.78"
      />
    <polyline
      stroke-width="3.000000e+00"
      stroke="#0000FF"
      stroke-opacity="1.000000"
      fill="none"
      points="289.90,116.59 292.00,116.59"
      />
    <polyline
      stroke-width="3.000000e+00"
      stroke="#0000FF"
      stroke-opacity="1.000000"
      fill="none"
      points="287.80,123.40 292.00,123.40"
      />
    <polyline
      stroke-width="3.000000e+00"
      stroke="#0000FF"
      stroke-opacity="1.000000"
      fill="none"
      points="289.90,130.22 292.00,130.22"
      />
    <polyline
      stroke-width="3.000000e+00"
      stroke="#0000FF"
      stroke-opacity="1.000000"
      fill="none"
      points="289.90,137.04 292.00,137.04"
      />
    <polyline
      stroke-width="3.000000e+00"
      stroke="#0000FF"
      stroke-opacity="1.000000"
      fill="none"
      points="289.90,143.85 292.00,143.85"
      />
    <polyline
      stroke-width="3.000000e+00"
      stroke="#0000FF"
      stroke-opacity="1.000000"
      fill="none"
      points="289.90,150.66 292.00,150.66"
      />
    <polyline
      stroke-width="3.000000e+00"
      stroke="#0000FF"
      stroke-opacity="1.000000"
      fill="none"
      points="287.80,157.48 292.00,157.48"
      />
    <polyline
      stroke-width="3.000000e+00"
      stroke="#0000FF"
      stroke-opacity="1.000000"
      fill="none"
      points="289.90,164.29 292.00,164.29"
      />
    <polyline
      stroke-width="3.000000e+00"
      stroke="#0000FF"
      stroke-opacity="1.000000"
      fill="none"
      points="289.90,171.11 292.00,171.11"
      />
    <polyline
      stroke-width="3.000000e+00"
      stroke="#0000FF"
      stroke-opacity="1.000000"
      fill="none"
      points="289.90,177.93 292.00,177.93"
      />
    <polyline
      stroke-width="3.000000e+00"
      stroke="#0000FF"
      stroke-opacity="1.000000"
      fill="none"
      points="289.90,184.73 292.00,184.73"
      />
    <polyline
      stroke-width="3.000000e+00"
      stroke="#0000FF"
      stroke-opacity="1.000000"
      fill="none"
      points="287.80,191.55 292.00,191.55"
      />
    <polyline
      stroke-width="3.000000e+00"
      stroke="#0000FF"
      stroke-opacity="1.000000"
      fill="none"
      points="289.90,198.37 292.00,198.37"
      />
    <polyline
      stroke-width="3.000000e+00"
      stroke="#0000FF"
      stroke-opacity="1.000000"
      fill="none"
      points="289.90,205.18 292.00,205.18"
      />
    <polyline
      stroke-width="3.000000e+00"
      stroke="#0000FF"
      stroke-opacity="1.000000"
      fill="none"
      points="289.90,212.00 292.00,212.00"
      />
    <polyline
      stroke-width="3.000000e+00"
      stroke="#0000FF"
      stroke-opacity="1.000000"
      fill="none"
      points="292.00,212.00 44.80,212.00"
      />
    <polyline
      stroke-width="3.000000e+00"
      stroke="#0000FF"
      stroke-opacity="1.000000"
      fill="none"
      points="291.99,209.90 291.99,212.00"
      />
    <polyline
      stroke-width="3.000000e+00"
      stroke="#0000FF"
      stroke-opacity="1.000000"
      fill="none"
      points="271.40,209.90 271.40,212.00"
      />
    <polyline
      stroke-width="3.000000e+00"
      stroke="#0000FF"
      stroke-opacity="1.000000"
      fill="none"
      points="250.80,207.80 250.80,212.00"
      />
    <polyline
      stroke-width="3.000000e+00"
      stroke="#0000FF"
      stroke-opacity="1.000000"
      fill="none"
      points="230.19,209.90 230.19,212.00"
      />
    <polyline
      stroke-width="3.000000e+00"
      stroke="#0000FF"
      stroke-opacity="1.000000"
      fill="none"
      points="209.60,209.90 209.60,212.00"
      />
    <polyline
      stroke-width="3.000000e+00"
      stroke="#0000FF"
      stroke-opacity="1.000000"
      fill="none"
      points="189.00,209.90 189.00,212.00"
      />
    <polyline
      stroke-width="3.000000e+00"
      stroke="#0000FF"
      stroke-opacity="1.000000"
      fill="none"
      points="168.39,207.80 168.39,212.00"
      />
    <polyline
      stroke-width="3.000000e+00"
      stroke="#0000FF"
      stroke-opacity="1.000000"
      fill="none"
      points="147.80,209.90 147.80,212.00"
      />
    <polyline
      stroke-width="3.000000e+00"
      stroke="#0000FF"
      stroke-opacity="1.000000"
      fill="none"
      points="127.19,209.90 127.19,212.00"
      />
    <polyline
      stroke-width="3.000000e+00"
      stroke="#0000FF"
      stroke-opacity="1.000000"
      fill="none"
      points="106.60,209.90 106.60,212.00"
      />
    <polyline
      stroke-width="3.000000e+00"
      stroke="#0000FF"
      stroke-opacity="1.000000"
      fill="none"
      points="86.00,207.80 86.00,212.00"
      />
    <polyline
      stroke-width="3.000000e+00"
      stroke="#0000FF"
      stroke-opacity="1.000000"
      fill="none"
      points="65.39,209.90 65.39,212.00"
      />
    <polyline
      stroke-width="3.000000e+00"
      stroke="#0000FF"
      stroke-opacity="1.000000"
      fill="none"
      points="44.80,209.90 44.80,212.00"
      />
    <polyline
      stroke-width="3.000000e+00"
      stroke="#0000FF"
      stroke-opacity="1.000000"
      fill="none"
      points="44.80,212.00 44.80,28.00"
      />
    <polyline
      stroke-width="3.000000e+00"
      stroke="#0000FF"
      stroke-opacity="1.000000"
      fill="none"
      points="44.80,212.00 46.90,212.00"
      />
    <polyline
      stroke-width="3.000000e+00"
      stroke="#0000FF"
      stroke-opacity="1.000000"
      fill="none"
      points="44.80,205.18 46.90,205.18"
      />
    <polyline
      stroke-width="3.000000e+00"
      stroke="#0000FF"
      stroke-opacity="1.000000"
      fill="none"
      points="44.80,198.37 46.90,198.37"
      />
    <polyline
      stroke-width="3.000000e+00"
      stroke="#0000FF"
      stroke-opacity="1.000000"
      fill="none"
      points="44.80,191.55 49.00,191.55"
      />
    <polyline
      stroke-width="3.000000e+00"
      stroke="#0000FF"
      stroke-opacity="1.000000"
      fill="none"
      points="44.80,184.73 46.90,184.73"
      />
    <polyline
      stroke-width="3.000000e+00"
      stroke="#0000FF"
      stroke-opacity="1.000000"
      fill="none"
      points="44.80,177.93 46.90,177.93"
      />
    <polyline
      stroke-width="3.000000e+00"
      stroke="#0000FF"
      stroke-opacity="1.000000"
      fill="none"
      points="44.80,171.11 46.90,171.11"
      />
    <polyline
      stroke-width="3.000000e+00"
      stroke="#0000FF"
      stroke-opacity="1.000000"
      fill="none"
      points="44.80,164.29 46.90,164.29"
      />
    <polyline
      stroke-width="3.000000e+00"
      stroke="#0000FF"
      stroke-opacity="1.000000"
      fill="none"
      points="44.80,157.48 49.00,157.48"
      />
    <polyline
      stroke-width="3.000000e+00"
      stroke="#0000FF"
      stroke-opacity="1.000000"
      fill="none"
      points="44.80,150.66 46.90,150.66"
      />
    <polyline
      stroke-width="3.000000e+00"
      stroke="#0000FF"
      stroke-opacity="1.000000"
      fill="none"
      points="44.80,143.85 46.90,143.85"
      />
    <polyline
      stroke-width="3.000000e+00"
      stroke="#0000FF"
      stroke-opacity="1.000000"
      fill="none"
      points="44.80,137.04 46.90,137.04"
      />
    <polyline
      stroke-width="3.000000e+00"
      stroke="#0000FF"
      stroke-opacity="1.000000"
      fill="none"
      points="44.80,130.22 46.90,130.22"
      />
    <polyline
      stroke-width="3.000000e+00"
      stroke="#0000FF"
      stroke-opacity="1.000000"
      fill="none"
      points="44.80,123.40 49.00,123.40"
      />
    <polyline
      stroke-width="3.000000e+00"
      stroke="#0000FF"
      stroke-opacity="1.000000"
      fill="none"
      points="44.80,116.59 46.90,116.59"
      />
    <polyline
      stroke-width="3.000000e+00"
      stroke="#0000FF"
      stroke-opacity="1.000000"
      fill="none"
      points="44.80,109.78 46.90,109.78"
      />
    <polyline
      stroke-width="3.000000e+00"
      stroke="#0000FF"
      stroke-opacity="1.000000"
      fill="none"
      points="44.80,102.96 46.90,102.96"
      />
    <polyline
      stroke-width="3.000000e+00"
      stroke="#0000FF"
      stroke-opacity="1.000000"
      fill="none"
      points="44.80,96.15 46.90,96.15"
      />
    <polyline
      stroke-width="3.000000e+00"
      stroke="#0000FF"
      stroke-opacity="1.000000"
      fill="none"
      points="44.80,89.33 49.00,89.33"
      />
    <polyline
      stroke-width="3.000000e+00"
      stroke="#0000FF"
      stroke-opacity="1.000000"
      fill="none"
      points="44.80,82.51 46.90,82.51"
      />
    <polyline
      stroke-width="3.000000e+00"
      stroke="#0000FF"
      stroke-opacity="1.000000"
      fill="none"
      points="44.80,75.71 46.90,75.71"
      />
    <polyline
      stroke-width="3.000000e+00"
      stroke="#0000FF"
      stroke-opacity="1.000000"
      fill="none"
      points="44.80,68.89 46.90,68.89"
      />
    <polyline
      stroke-width="3.000000e+00"
      stroke="#0000FF"
      stroke-opacity="1.000000"
      fill="none"
      points="44.80,62.07 46.90,62.07"
      />
    <polyline
      stroke-width="3.000000e+00"
      stroke="#0000FF"
      stroke-opacity="1.000000"
      fill="none"
      points="44.80,55.26 49.00,55.26"
      />
    <polyline
      stroke-width="3.000000e+00"
      stroke="#0000FF"
      stroke-opacity="1.000000"
      fill="none"
      points="44.80,48.44 46.90,48.44"
      />
    <polyline
      stroke-width="3.000000e+00"
      stroke="#0000FF"
      stroke-opacity="1.000000"
      fill="none"
      points="44.80,41.63 46.90,41.63"
      />
    <polyline
      stroke-width="3.000000e+00"
      stroke="#0000FF"
      stroke-opacity="1.000000"
      fill="none"
      points="44.80,34.82 46.90,34.82"
      />
    <polyline
      stroke-width="3.000000e+00"
      stroke="#0000FF"
      stroke-opacity="1.000000"
      fill="none"
      points="44.80,28.00 46.90,28.00"
      />
    <clipPath
      id="text-clipping15"
      >
      <polygon
        points="0.000000,0.000000 0.000000,239.997559 320.000000,239.997559 320.000000,0.000000"
        />
    </clipPath>
    <g
      clip-path="url(#text-clipping15)"
      >
      <text
        dominant-baseline="no-change"
        fill="#0000FF"
        fill-opacity="1.000000"
        xml:space="preserve"
        font-size="7"
        transform="matrix(1.000000 0.000000 0.000000 -1.000000 85.998718 19.600208)"
        text-anchor="middle"
        x="0.000000"
        y="3.145148"
><tspan font-family="sans-serif" font-style="normal" font-weight="normal">&#x2d;&#x32;</tspan></text>
    </g>
    <g
      clip-path="url(#text-clipping15)"
      >
      <text
        dominant-baseline="no-change"
        fill="#0000FF"
        fill-opacity="1.000000"
        xml:space="preserve"
        font-size="7"
        transform="matrix(1.000000 0.000000 0.000000 -1.000000 168.403577 19.600208)"
        text-anchor="middle"
        x="0.000000"
        y="3.145148"
><tspan font-family="sans-serif" font-style="normal" font-weight="normal">&#x30;</tspan></text>
    </g>
    <g
      clip-path="url(#text-clipping15)"
      >
      <text
        dominant-baseline="no-change"
        fill="#0000FF"
        fill-opacity="1.000000"
        xml:space="preserve"
        font-size="7"
        transform="matrix(1.000000 0.000000 0.000000 -1.000000 250.798669 19.600208)"
        text-anchor="middle"
        x="0.000000"
        y="3.145148"
><tspan font-family="sans-serif" font-style="normal" font-weight="normal">&#x32;</tspan></text>
    </g>
    <g
      clip-path="url(#text-clipping15)"
      >
      <text
        dominant-baseline="no-change"
        fill="#0000FF"
        fill-opacity="1.000000"
        xml:space="preserve"
        font-size="7"
        transform="matrix(1.000000 0.000000 0.000000 -1.000000 42.003235 55.255593)"
        text-anchor="end"
        x="0.000000"
        y="3.145148"
><tspan font-family="sans-serif" font-style="normal" font-weight="normal">&#x2d;&#x32;&#x30;</tspan></text>
    </g>
    <g
      clip-path="url(#text-clipping15)"
      >
      <text
        dominant-baseline="no-change"
        fill="#0000FF"
        fill-opacity="1.000000"
        xml:space="preserve"
        font-size="7"
        transform="matrix(1.000000 0.000000 0.000000 -1.000000 42.003235 89.328898)"
        text-anchor="end"
        x="0.000000"
        y="3.145148"
><tspan font-family="sans-serif" font-style="normal" font-weight="normal">&#x2d;&#x31;&#x30;</tspan></text>
    </g>
    <g
      clip-path="url(#text-clipping15)"
      >
      <text
        dominant-baseline="no-change"
        fill="#0000FF"
        fill-opacity="1.000000"
        xml:space="preserve"
        font-size="7"
        transform="matrix(1.000000 0.000000 0.000000 -1.000000 42.003235 123.402203)"
        text-anchor="end"
        x="0.000000"
        y="3.145148"
><tspan font-family="sans-serif" font-style="normal" font-weight="normal">&#x30;</tspan></text>
    </g>
    <g
      clip-path="url(#text-clipping15)"
      >
      <text
        dominant-baseline="no-change"
        fill="#0000FF"
        fill-opacity="1.000000"
        xml:space="preserve"
        font-size="7"
        transform="matrix(1.000000 0.000000 0.000000 -1.000000 42.003235 157.475509)"
        text-anchor="end"
        x="0.000000"
        y="3.145148"
><tspan font-family="sans-serif" font-style="normal" font-weight="normal">&#x31;&#x30;</tspan></text>
    </g>
    <g
      clip-path="url(#text-clipping15)"
      >
      <text
        dominant-baseline="no-change"
        fill="#0000FF"
        fill-opacity="1.000000"
        xml:space="preserve"
        font-size="7"
        transform="matrix(1.000000 0.000000 0.000000 -1.000000 42.003235 191.548814)"
        text-anchor="end"
        x="0.000000"
        y="3.145148"
><tspan font-family="sans-serif" font-style="normal" font-weight="normal">&#x32;&#x30;</tspan></text>
    </g>
    <g
      clip-path="url(#text-clipping15)"
      >
      <text
        dominant-baseline="no-change"
        fill="#FF0000"
        fill-opacity="1.000000"
        xml:space="preserve"
        font-size="7"
        transform="matrix(1.000000 0.000000 0.000000 -1.000000 168.403577 223.200171)"
        text-anchor="middle"
        x="0.000000"
        y="3.145148"
><tspan font-family="sans-serif" font-style="normal" font-weight="normal">&#x66;&#x28;&#x78;&#x29;&#x3d;&#x78;<tspan dy="-4.893525" font-size="5">&#x32;<tspan dy="4.893525" font-size="7">&#x2d;&#x31;</tspan></tspan></tspan></text>
    </g>
    <g
      clip-path="url(#text-clipping15)"
      >
      <text
        dominant-baseline="no-change"
        fill="#FF0000"
        fill-opacity="1.000000"
        xml:space="preserve"
        font-size="7"
        transform="matrix(1.000000 0.000000 0.000000 -1.000000 168.403577 10.078433)"
        text-anchor="middle"
        x="0.000000"
        y="3.145148"
><tspan font-family="sans-serif" font-style="normal" font-weight="normal">&#x78;</tspan></text>
    </g>
    <g
      clip-path="url(#text-clipping15)"
      >
      <text
        dominant-baseline="no-change"
        fill="#FF0000"
        fill-opacity="1.000000"
        xml:space="preserve"
        font-size="7"
        transform="matrix(0.000000 1.000000 1.000000 -0.000000 16.797388 120.003662)"
        text-anchor="middle"
        x="0.000000"
        y="3.145148"
><tspan font-family="sans-serif" font-style="normal" font-weight="normal">&#x79;</tspan></text>
    </g>
  </g>
</svg>
